# xmcd
#
# Track frame offsets:
#	150
#	35040
#	53167
#	71235
#	95157
#	117147
#	142362
#	170615
#	192865
#	233070
#	249390
#	264420
#	290500
#
# Disc length: 4237 seconds
#
# Revision: 1
# Processed by: cddbd v1.5.1PL2 Copyright (c) Steve Scherf et al.
# Submitted via: audiograbber 1.83.01
#
DISCID=ca108b0d
DTITLE=Little Village - Live in San Fransisco
DYEAR=1992
DGENRE=
TTITLE0=SOLAR SEX PANEL
TTITLE1=THE ACTION
TTITLE2=FOOL WHO KNOWS
TTITLE3=DO YOU WANT MY JOB
TTITLE4=SHE RUNS HOT
TTITLE5=DON´T THINK ABOUT HER WHEN YOU´RE TRYING TO DRIVE
TTITLE6=MEMPHIS IN THE MEANTIME
TTITLE7=CRYIN´ IN MY SLEEP
TTITLE8=BIG LOVE
TTITLE9=LITTLE SISTER
TTITLE10=HALF A BOY AND HALF A MAN
TTITLE11=THING CALLED LOVE
TTITLE12=LIPSTICK SUNSET
EXTD=
EXTT0=
EXTT1=
EXTT2=
EXTT3=
EXTT4=
EXTT5=
EXTT6=
EXTT7=
EXTT8=
EXTT9=
EXTT10=
EXTT11=
EXTT12=
PLAYORDER=
